<svg xmlns="http://www.w3.org/2000/svg" class="w-4 h-4 mr-2" viewBox="0 0 24 24">
                  <g data-name="Layer 2">
                    <path
                      d="M14.5 12.75A3.22 3.22 0 0 1 12 11.6a3.27 3.27 0 0 1-2.5 1.15A3.22 3.22 0 0 1 7 11.6a2.91 2.91 0 0 1-.3.31 3.22 3.22 0 0 1-2.51.82 3.35 3.35 0 0 1-2.94-3.37v-.71a4.76 4.76 0 0 1 .24-1.5l1.57-4.7a1.75 1.75 0 0 1 1.66-1.2h14.56a1.75 1.75 0 0 1 1.66 1.2l1.57 4.7a4.76 4.76 0 0 1 .24 1.5v.71a3.35 3.35 0 0 1-2.92 3.37 3.2 3.2 0 0 1-2.51-.82c-.11-.1-.22-.22-.32-.33a3.28 3.28 0 0 1-2.5 1.17zm-9.78-10a.26.26 0 0 0-.24.17l-1.56 4.7a3.27 3.27 0 0 0-.17 1v.71a1.84 1.84 0 0 0 1.57 1.88A1.75 1.75 0 0 0 6.25 9.5a.75.75 0 0 1 1.5 0 1.67 1.67 0 0 0 1.75 1.75 1.76 1.76 0 0 0 1.75-1.75.75.75 0 0 1 1.5 0 1.67 1.67 0 0 0 1.75 1.75 1.76 1.76 0 0 0 1.75-1.75.75.75 0 0 1 1.5 0 1.75 1.75 0 0 0 1.93 1.74 1.84 1.84 0 0 0 1.57-1.88v-.71a3.27 3.27 0 0 0-.17-1l-1.56-4.7a.26.26 0 0 0-.24-.17z"
                      data-original="#000000" />
                    <path
                      d="M20 22.75H4A1.76 1.76 0 0 1 2.25 21v-9.52a.75.75 0 0 1 1.5 0V21a.25.25 0 0 0 .25.25h16a.25.25 0 0 0 .25-.25v-9.53a.75.75 0 1 1 1.5 0V21A1.76 1.76 0 0 1 20 22.75z"
                      data-original="#000000" />
                    <path
                      d="M15.5 22.75h-7a.76.76 0 0 1-.75-.75v-5a1.76 1.76 0 0 1 1.75-1.75h5A1.76 1.76 0 0 1 16.25 17v5a.76.76 0 0 1-.75.75zm-6.25-1.5h5.5V17a.25.25 0 0 0-.25-.25h-5a.25.25 0 0 0-.25.25z"
                      data-original="#000000" />
                  </g>
                </svg>